<mxfile host="app.diagrams.net" modified="2023-12-13T15:31:22.137Z" agent="Mozilla/5.0 (Windows NT 10.0; Win64; x64) AppleWebKit/537.36 (KHTML, like Gecko) Chrome/120.0.0.0 Safari/537.36" etag="Ipbh8NJdhmskaujUfBXJ" version="22.1.8" type="device">
  <diagram name="Page-1" id="ErTbKcqKZ2xhiDjPjbhf">
    <mxGraphModel dx="576" dy="1411" grid="1" gridSize="10" guides="1" tooltips="1" connect="1" arrows="1" fold="1" page="1" pageScale="1" pageWidth="850" pageHeight="1100" math="0" shadow="0">
      <root>
        <mxCell id="0" />
        <mxCell id="1" parent="0" />
        <mxCell id="ib5nKKwOEMBIJ6S_tV-n-5" value="" style="rounded=1;whiteSpace=wrap;html=1;fillColor=#fff2cc;strokeColor=#d6b656;" vertex="1" parent="1">
          <mxGeometry x="370" y="50" width="150" height="110" as="geometry" />
        </mxCell>
        <mxCell id="ib5nKKwOEMBIJ6S_tV-n-3" value="" style="rounded=1;whiteSpace=wrap;html=1;fillColor=#dae8fc;strokeColor=#6c8ebf;" vertex="1" parent="1">
          <mxGeometry x="740" y="-60" width="250" height="140" as="geometry" />
        </mxCell>
        <mxCell id="ws02KM892tS8xXt20fse-1" value="маркетолог" style="shape=umlActor;verticalLabelPosition=bottom;verticalAlign=top;html=1;outlineConnect=0;" parent="1" vertex="1">
          <mxGeometry x="220" y="180" width="30" height="60" as="geometry" />
        </mxCell>
        <mxCell id="ws02KM892tS8xXt20fse-13" style="edgeStyle=orthogonalEdgeStyle;rounded=0;orthogonalLoop=1;jettySize=auto;html=1;" parent="1" source="ws02KM892tS8xXt20fse-2" target="ws02KM892tS8xXt20fse-7" edge="1">
          <mxGeometry relative="1" as="geometry" />
        </mxCell>
        <mxCell id="ws02KM892tS8xXt20fse-2" value="excel" style="shape=internalStorage;whiteSpace=wrap;html=1;backgroundOutline=1;" parent="1" vertex="1">
          <mxGeometry x="180" y="280" width="80" height="80" as="geometry" />
        </mxCell>
        <mxCell id="ws02KM892tS8xXt20fse-7" value="Товар" style="swimlane;fontStyle=0;childLayout=stackLayout;horizontal=1;startSize=30;horizontalStack=0;resizeParent=1;resizeParentMax=0;resizeLast=0;collapsible=1;marginBottom=0;whiteSpace=wrap;html=1;" parent="1" vertex="1">
          <mxGeometry x="25" y="80" width="140" height="180" as="geometry" />
        </mxCell>
        <mxCell id="ws02KM892tS8xXt20fse-8" value="id - unique" style="text;strokeColor=none;fillColor=none;align=left;verticalAlign=middle;spacingLeft=4;spacingRight=4;overflow=hidden;points=[[0,0.5],[1,0.5]];portConstraint=eastwest;rotatable=0;whiteSpace=wrap;html=1;" parent="ws02KM892tS8xXt20fse-7" vertex="1">
          <mxGeometry y="30" width="140" height="30" as="geometry" />
        </mxCell>
        <mxCell id="ws02KM892tS8xXt20fse-9" value="title" style="text;strokeColor=none;fillColor=none;align=left;verticalAlign=middle;spacingLeft=4;spacingRight=4;overflow=hidden;points=[[0,0.5],[1,0.5]];portConstraint=eastwest;rotatable=0;whiteSpace=wrap;html=1;" parent="ws02KM892tS8xXt20fse-7" vertex="1">
          <mxGeometry y="60" width="140" height="30" as="geometry" />
        </mxCell>
        <mxCell id="ws02KM892tS8xXt20fse-10" value="description" style="text;strokeColor=none;fillColor=none;align=left;verticalAlign=middle;spacingLeft=4;spacingRight=4;overflow=hidden;points=[[0,0.5],[1,0.5]];portConstraint=eastwest;rotatable=0;whiteSpace=wrap;html=1;" parent="ws02KM892tS8xXt20fse-7" vertex="1">
          <mxGeometry y="90" width="140" height="30" as="geometry" />
        </mxCell>
        <mxCell id="ws02KM892tS8xXt20fse-11" value="price" style="text;strokeColor=none;fillColor=none;align=left;verticalAlign=middle;spacingLeft=4;spacingRight=4;overflow=hidden;points=[[0,0.5],[1,0.5]];portConstraint=eastwest;rotatable=0;whiteSpace=wrap;html=1;" parent="ws02KM892tS8xXt20fse-7" vertex="1">
          <mxGeometry y="120" width="140" height="30" as="geometry" />
        </mxCell>
        <mxCell id="ws02KM892tS8xXt20fse-12" value="count" style="text;strokeColor=none;fillColor=none;align=left;verticalAlign=middle;spacingLeft=4;spacingRight=4;overflow=hidden;points=[[0,0.5],[1,0.5]];portConstraint=eastwest;rotatable=0;whiteSpace=wrap;html=1;" parent="ws02KM892tS8xXt20fse-7" vertex="1">
          <mxGeometry y="150" width="140" height="30" as="geometry" />
        </mxCell>
        <mxCell id="ws02KM892tS8xXt20fse-17" style="edgeStyle=orthogonalEdgeStyle;rounded=0;orthogonalLoop=1;jettySize=auto;html=1;" parent="1" source="ws02KM892tS8xXt20fse-14" target="ws02KM892tS8xXt20fse-16" edge="1">
          <mxGeometry relative="1" as="geometry" />
        </mxCell>
        <mxCell id="ws02KM892tS8xXt20fse-14" value="chrome" style="ellipse;whiteSpace=wrap;html=1;aspect=fixed;" parent="1" vertex="1">
          <mxGeometry x="270" y="180" width="80" height="80" as="geometry" />
        </mxCell>
        <mxCell id="ws02KM892tS8xXt20fse-15" value="sqlite" style="shape=cylinder3;whiteSpace=wrap;html=1;boundedLbl=1;backgroundOutline=1;size=15;" parent="1" vertex="1">
          <mxGeometry x="460" y="270" width="60" height="80" as="geometry" />
        </mxCell>
        <mxCell id="ws02KM892tS8xXt20fse-18" style="edgeStyle=orthogonalEdgeStyle;rounded=0;orthogonalLoop=1;jettySize=auto;html=1;" parent="1" source="ws02KM892tS8xXt20fse-16" target="ws02KM892tS8xXt20fse-15" edge="1">
          <mxGeometry relative="1" as="geometry" />
        </mxCell>
        <mxCell id="ws02KM892tS8xXt20fse-16" value="fastapi" style="shape=cube;whiteSpace=wrap;html=1;boundedLbl=1;backgroundOutline=1;darkOpacity=0.05;darkOpacity2=0.1;" parent="1" vertex="1">
          <mxGeometry x="400" y="120" width="120" height="80" as="geometry" />
        </mxCell>
        <mxCell id="ws02KM892tS8xXt20fse-26" style="edgeStyle=orthogonalEdgeStyle;rounded=0;orthogonalLoop=1;jettySize=auto;html=1;" parent="1" source="ws02KM892tS8xXt20fse-19" target="ws02KM892tS8xXt20fse-21" edge="1">
          <mxGeometry relative="1" as="geometry" />
        </mxCell>
        <mxCell id="ws02KM892tS8xXt20fse-27" style="edgeStyle=orthogonalEdgeStyle;rounded=0;orthogonalLoop=1;jettySize=auto;html=1;" parent="1" source="ws02KM892tS8xXt20fse-19" target="ws02KM892tS8xXt20fse-22" edge="1">
          <mxGeometry relative="1" as="geometry" />
        </mxCell>
        <mxCell id="ws02KM892tS8xXt20fse-28" style="edgeStyle=orthogonalEdgeStyle;rounded=0;orthogonalLoop=1;jettySize=auto;html=1;" parent="1" source="ws02KM892tS8xXt20fse-19" target="ws02KM892tS8xXt20fse-23" edge="1">
          <mxGeometry relative="1" as="geometry" />
        </mxCell>
        <mxCell id="ws02KM892tS8xXt20fse-19" value="telegram" style="ellipse;shape=cloud;whiteSpace=wrap;html=1;" parent="1" vertex="1">
          <mxGeometry x="670" y="80" width="120" height="80" as="geometry" />
        </mxCell>
        <mxCell id="ws02KM892tS8xXt20fse-20" style="edgeStyle=orthogonalEdgeStyle;rounded=0;orthogonalLoop=1;jettySize=auto;html=1;entryX=0.16;entryY=0.55;entryDx=0;entryDy=0;entryPerimeter=0;" parent="1" source="ws02KM892tS8xXt20fse-16" target="ws02KM892tS8xXt20fse-19" edge="1">
          <mxGeometry relative="1" as="geometry" />
        </mxCell>
        <mxCell id="ws02KM892tS8xXt20fse-21" value="мама 1" style="shape=umlActor;verticalLabelPosition=bottom;verticalAlign=top;html=1;outlineConnect=0;" parent="1" vertex="1">
          <mxGeometry x="690" y="220" width="30" height="60" as="geometry" />
        </mxCell>
        <mxCell id="ws02KM892tS8xXt20fse-22" value="мама 2" style="shape=umlActor;verticalLabelPosition=bottom;verticalAlign=top;html=1;outlineConnect=0;" parent="1" vertex="1">
          <mxGeometry x="760" y="200" width="30" height="60" as="geometry" />
        </mxCell>
        <mxCell id="ws02KM892tS8xXt20fse-23" value="мама 3" style="shape=umlActor;verticalLabelPosition=bottom;verticalAlign=top;html=1;outlineConnect=0;" parent="1" vertex="1">
          <mxGeometry x="820" y="180" width="30" height="60" as="geometry" />
        </mxCell>
        <mxCell id="ws02KM892tS8xXt20fse-29" value="http" style="text;html=1;strokeColor=none;fillColor=none;align=center;verticalAlign=middle;whiteSpace=wrap;rounded=0;" parent="1" vertex="1">
          <mxGeometry x="560" y="80" width="60" height="30" as="geometry" />
        </mxCell>
        <mxCell id="ws02KM892tS8xXt20fse-30" value="1" style="text;html=1;strokeColor=#b85450;fillColor=#f8cecc;align=center;verticalAlign=middle;whiteSpace=wrap;rounded=0;" parent="1" vertex="1">
          <mxGeometry x="330" y="110" width="60" height="30" as="geometry" />
        </mxCell>
        <mxCell id="ws02KM892tS8xXt20fse-31" value="2" style="text;html=1;strokeColor=#d6b656;fillColor=#fff2cc;align=center;verticalAlign=middle;whiteSpace=wrap;rounded=0;" parent="1" vertex="1">
          <mxGeometry x="270" y="320" width="60" height="30" as="geometry" />
        </mxCell>
        <mxCell id="ws02KM892tS8xXt20fse-32" value="3" style="text;html=1;strokeColor=#82b366;fillColor=#d5e8d4;align=center;verticalAlign=middle;whiteSpace=wrap;rounded=0;" parent="1" vertex="1">
          <mxGeometry x="520" y="240" width="60" height="30" as="geometry" />
        </mxCell>
        <mxCell id="ws02KM892tS8xXt20fse-33" value="4" style="text;html=1;strokeColor=#6c8ebf;fillColor=#dae8fc;align=center;verticalAlign=middle;whiteSpace=wrap;rounded=0;" parent="1" vertex="1">
          <mxGeometry x="530" y="110" width="60" height="30" as="geometry" />
        </mxCell>
        <mxCell id="dOZwSvNgllW5GyWR17gg-2" style="edgeStyle=orthogonalEdgeStyle;rounded=0;orthogonalLoop=1;jettySize=auto;html=1;" parent="1" source="dOZwSvNgllW5GyWR17gg-1" target="ws02KM892tS8xXt20fse-19" edge="1">
          <mxGeometry relative="1" as="geometry" />
        </mxCell>
        <mxCell id="dOZwSvNgllW5GyWR17gg-1" value="4.1" style="text;html=1;strokeColor=none;fillColor=none;align=center;verticalAlign=middle;whiteSpace=wrap;rounded=0;" parent="1" vertex="1">
          <mxGeometry x="530" y="40" width="60" height="30" as="geometry" />
        </mxCell>
        <mxCell id="dOZwSvNgllW5GyWR17gg-3" value="" style="shape=flexArrow;endArrow=classic;html=1;rounded=0;fillColor=#f8cecc;strokeColor=#b85450;" parent="1" edge="1">
          <mxGeometry width="50" height="50" relative="1" as="geometry">
            <mxPoint x="600" y="200" as="sourcePoint" />
            <mxPoint x="640" y="20" as="targetPoint" />
          </mxGeometry>
        </mxCell>
        <mxCell id="ib5nKKwOEMBIJ6S_tV-n-1" value="bot.api" style="shape=cube;whiteSpace=wrap;html=1;boundedLbl=1;backgroundOutline=1;darkOpacity=0.05;darkOpacity2=0.1;" vertex="1" parent="1">
          <mxGeometry x="790" y="-20" width="120" height="80" as="geometry" />
        </mxCell>
        <mxCell id="ib5nKKwOEMBIJ6S_tV-n-4" value="pythonanywhere" style="text;html=1;strokeColor=#6c8ebf;fillColor=#dae8fc;align=center;verticalAlign=middle;whiteSpace=wrap;rounded=0;" vertex="1" parent="1">
          <mxGeometry x="805" y="-90" width="120" height="30" as="geometry" />
        </mxCell>
        <mxCell id="ib5nKKwOEMBIJ6S_tV-n-6" value="oblako.kz" style="text;html=1;strokeColor=#d6b656;fillColor=#fff2cc;align=center;verticalAlign=middle;whiteSpace=wrap;rounded=0;" vertex="1" parent="1">
          <mxGeometry x="385" y="10" width="120" height="30" as="geometry" />
        </mxCell>
        <mxCell id="ib5nKKwOEMBIJ6S_tV-n-7" value="DINO" style="rounded=1;whiteSpace=wrap;html=1;" vertex="1" parent="1">
          <mxGeometry x="630" y="-270" width="90" height="70" as="geometry" />
        </mxCell>
        <mxCell id="ib5nKKwOEMBIJ6S_tV-n-8" value="DINO" style="rounded=1;whiteSpace=wrap;html=1;" vertex="1" parent="1">
          <mxGeometry x="720" y="-270" width="90" height="70" as="geometry" />
        </mxCell>
        <mxCell id="ib5nKKwOEMBIJ6S_tV-n-9" value="DINO" style="rounded=1;whiteSpace=wrap;html=1;" vertex="1" parent="1">
          <mxGeometry x="810" y="-270" width="90" height="70" as="geometry" />
        </mxCell>
        <mxCell id="ib5nKKwOEMBIJ6S_tV-n-10" value="DINO" style="rounded=1;whiteSpace=wrap;html=1;" vertex="1" parent="1">
          <mxGeometry x="900" y="-270" width="90" height="70" as="geometry" />
        </mxCell>
      </root>
    </mxGraphModel>
  </diagram>
</mxfile>
